<svg xmlns="http://www.w3.org/2000/svg" width="208" height="202" fill="none"><path stroke="#0278A6" stroke-dasharray="16 16" stroke-width="8" d="M143.5 4h-92c-25.957 0-47 21.043-47 47v43.5M66 183h91c25.957 0 47-21.043 47-47V94"/><rect width="78" height="60" x="24" y="138" stroke="#45E7DD" stroke-width="8" rx="26"/><rect width="52" height="60" x="38" y="80" fill="#fff" stroke="#45E7DD" stroke-width="8" rx="26"/><path fill="#fff" stroke="#45E7DD" stroke-width="8" d="M100 33c0-7.18 5.82-13 13-13h72c7.18 0 13 5.82 13 13v34c0 7.18-5.82 13-13 13h-34.964a21 21 0 0 0-13.243 4.702l-18.124 14.726C122.545 90.64 116.238 80 105.898 80A5.898 5.898 0 0 1 100 74.102V33z"/></svg>